<svg xmlns="http://www.w3.org/2000/svg" xmlns:xlink="http://www.w3.org/1999/xlink" width="238.207" height="51.645" viewBox="0 0 238.207 51.645">
  <defs>
    <clipPath id="clip-path">
      <rect id="Rectángulo_336" data-name="Rectángulo 336" width="238.207" height="51.645" fill="none"/>
    </clipPath>
  </defs>
  <g id="Grupo_227" data-name="Grupo 227" transform="translate(0 0)">
    <g id="Grupo_226" data-name="Grupo 226" transform="translate(0 0)" clip-path="url(#clip-path)">
      <path id="Trazado_428" data-name="Trazado 428" d="M104.429,33.839a.185.185,0,0,0-.158-.07l-7.017,0V26.665a.211.211,0,0,0-.226-.225H95.54a.211.211,0,0,0-.226.225v8.818a.213.213,0,0,0,.226.226h8.234a.2.2,0,0,0,.182-.131l.5-1.566a.19.19,0,0,0-.026-.174" transform="translate(56.699 15.729)" fill="#ff3600"/>
      <path id="Trazado_429" data-name="Trazado 429" d="M117.3,26.552a.2.2,0,0,0-.188-.113h-1.86a.24.24,0,0,0-.167.085l-4.45,8.883v0a.218.218,0,0,0,0,.2.2.2,0,0,0,.19.116h1.7a.218.218,0,0,0,.188-.126l.737-1.474,5.47-.014.742,1.478a.2.2,0,0,0,.193.136h1.7a.208.208,0,0,0,.179-.107.213.213,0,0,0,.01-.207Zm.651,5.63h-3.539l1.775-3.528Z" transform="translate(65.797 15.728)" fill="#ff3600"/>
      <path id="Trazado_430" data-name="Trazado 430" d="M137.595,31.871a1.938,1.938,0,0,0-.552-.665,2.12,2.12,0,0,0-.708-.346c-.048-.014-.1-.026-.142-.038a.167.167,0,0,0,.04-.022,1.469,1.469,0,0,0,.456-.429,2.224,2.224,0,0,0,.3-.62A2.512,2.512,0,0,0,137.1,29a2.79,2.79,0,0,0-.148-.877,2.2,2.2,0,0,0-.5-.831,2.673,2.673,0,0,0-.925-.611,3.725,3.725,0,0,0-1.415-.238h-6.486a.211.211,0,0,0-.226.225v8.818a.213.213,0,0,0,.226.226h7.105a3.323,3.323,0,0,0,1.477-.3,2.916,2.916,0,0,0,.949-.724,2.72,2.72,0,0,0,.51-.914,2.831,2.831,0,0,0,.155-.858,2.205,2.205,0,0,0-.225-1.045m-8.257.067h5.18a1.535,1.535,0,0,1,1.029.3.881.881,0,0,1,.333.679.905.905,0,0,1-.041.226.62.62,0,0,1-.156.274,1.088,1.088,0,0,1-.388.244,2,2,0,0,1-.727.108l-5.23,0ZM135,29.8a1.157,1.157,0,0,1-.719.187h-4.944l0-1.609h4.947a1.009,1.009,0,0,1,.721.217.742.742,0,0,1,.22.563A.787.787,0,0,1,135,29.8" transform="translate(75.784 15.729)" fill="#ff3600"/>
      <path id="Trazado_431" data-name="Trazado 431" d="M153.009,31.937a2.557,2.557,0,0,0-.754-.783,3.811,3.811,0,0,0-1.046-.493,8.714,8.714,0,0,0-1.182-.271,11.258,11.258,0,0,0-1.179-.12c-.37-.016-.718-.024-1.035-.024a9.355,9.355,0,0,1-2.351-.233c-.522-.142-.783-.359-.783-.648a.7.7,0,0,1,.113-.343,1.039,1.039,0,0,1,.477-.352,4.551,4.551,0,0,1,1.088-.3,11.444,11.444,0,0,1,1.866-.123,8.129,8.129,0,0,1,1.351.11,9.987,9.987,0,0,1,1.183.271,7.426,7.426,0,0,1,.936.335,5.552,5.552,0,0,1,.612.309l.026.018.072.011a.169.169,0,0,0,.152-.069.153.153,0,0,0,.022-.137l-.123-1.829a.151.151,0,0,0-.116-.159c-.078-.037-.226-.1-.427-.177a8.442,8.442,0,0,0-.88-.27c-.364-.094-.783-.174-1.246-.246a12.85,12.85,0,0,0-3.467.026,6.806,6.806,0,0,0-1.759.467,3.475,3.475,0,0,0-1.3.928,2.263,2.263,0,0,0-.52,1.525,3.441,3.441,0,0,0,.041.463,1.883,1.883,0,0,0,.2.614,2.359,2.359,0,0,0,.493.633,3.206,3.206,0,0,0,.9.56,6.327,6.327,0,0,0,1.4.4,11.891,11.891,0,0,0,2.035.152,15.082,15.082,0,0,1,1.612.072,6.407,6.407,0,0,1,1.085.2,1.706,1.706,0,0,1,.592.278.362.362,0,0,1,.156.265c0,.3-.241.537-.738.73a6.248,6.248,0,0,1-2.2.309,12.208,12.208,0,0,1-1.939-.14,13.453,13.453,0,0,1-1.5-.327,7.15,7.15,0,0,1-1.038-.372c-.258-.121-.456-.22-.574-.287l-.024-.016-.07-.011c-.08,0-.175.054-.174.211l.183,1.9a.185.185,0,0,0,.105.153c.073.033.223.089.5.185s.612.182,1.03.274.935.182,1.523.257a15.641,15.641,0,0,0,1.979.113,9.527,9.527,0,0,0,1.933-.171,5.819,5.819,0,0,0,1.36-.443,3.269,3.269,0,0,0,.892-.611,2.931,2.931,0,0,0,.51-.659,2.167,2.167,0,0,0,.23-.611,2.407,2.407,0,0,0,.051-.423,2.149,2.149,0,0,0-.289-1.126" transform="translate(84.909 15.654)" fill="#ff3600"/>
      <path id="Trazado_432" data-name="Trazado 432" d="M25.822,0A25.822,25.822,0,1,0,51.645,25.822,25.82,25.82,0,0,0,25.822,0m.1,34.409A47.935,47.935,0,0,0,7.808,37.939L25.928,6.657,43.97,37.9A48.254,48.254,0,0,0,25.92,34.409" transform="translate(0 0)" fill="#161615"/>
      <path id="Trazado_433" data-name="Trazado 433" d="M81.934,18.848a6.564,6.564,0,1,1-13.127,0V9.367H63.349v9.481a12.021,12.021,0,1,0,24.043,0V9.367H81.934Z" transform="translate(37.684 5.573)" fill="#161615"/>
      <path id="Trazado_434" data-name="Trazado 434" d="M41.2,31.525h6.306L54.8,18.913l7.282,12.612h6.3L54.8,8Z" transform="translate(24.51 4.762)" fill="#161615"/>
      <path id="Trazado_435" data-name="Trazado 435" d="M152.629,10.136v11.8L134.043,8.088V31.455H139.5V19.723l18.588,13.847V10.136Z" transform="translate(79.737 4.812)" fill="#161615"/>
      <path id="Trazado_436" data-name="Trazado 436" d="M86.289,20.041A10.685,10.685,0,0,0,96.965,30.714h12.609V17.855h-5.239v7.6l-7.37,0a5.416,5.416,0,0,1,0-10.832h12.617V9.367H96.965A10.689,10.689,0,0,0,86.289,20.041" transform="translate(51.33 5.573)" fill="#161615"/>
      <path id="Trazado_437" data-name="Trazado 437" d="M109.9,30.721h24.046V25.465H115.125V14.631h18.821V9.372H109.9Z" transform="translate(65.375 5.576)" fill="#161615"/>
      <path id="Trazado_438" data-name="Trazado 438" d="M115.907,16.985a2.439,2.439,0,1,0,2.439-2.439,2.439,2.439,0,0,0-2.439,2.439" transform="translate(68.949 8.653)" fill="#ff3600"/>
    </g>
  </g>
</svg>
